Release Information:

Breaking.Bad.S02.720p.BRRip.x264.AC3-PsychoLogic

Runtime                          : 13 x ~47 Minutes
File Size                        : 13 x 1.38 - 1.84 GB
Encoded By                       : PsychoLogic
Source                           : Breaking.Bad.S02.720p.BluRay.x264-CLUE - Thanks xD
Subtitles                        : English
Language                         : English
Container                        : MKV
Sample Included                  : No

Information                      : http://www.imdb.com/title/tt0903747/
Genre                            : Crime | Drama
Creator                          : Vince Gilligan
Cast                             : Bryan Cranston, Anna Gunn and Aaron Paul
Plot                             : Informed he has terminal cancer, an underachieving chemistry genius turned high school chemistry teacher turns to using his expertise in chemistry to provide a legacy for his family... by producing the world's highest quality crystal meth. 


Details (E01)

General
Complete name                    : Breaking.Bad.S02E01.Seven.Thirty-Seven.720p.BRRip.x264.AC3-PsychoLogic.mkv
Format                           : Matroska
Format version                   : Version 2
File size                        : 1.39 GiB
Duration                         : 47mn 15s
Overall bit rate                 : 4 197 Kbps
Encoded date                     : UTC 2011-07-07 18:13:15
Writing application              : mkvmerge v4.8.0 ('I Got The...') built on May 24 2011 03:12:58
Writing library                  : libebml v1.2.0 + libmatroska v1.1.0

Video
ID                               : 1
Format                           : AVC
Format/Info                      : Advanced Video Codec
Format profile                   : High@L4.1
Format settings, CABAC           : Yes
Format settings, ReFrames        : 5 frames
Format settings, GOP             : M=4, N=49
Codec ID                         : V_MPEG4/ISO/AVC
Duration                         : 47mn 15s
Bit rate                         : 3 730 Kbps
Width                            : 1 280 pixels
Height                           : 720 pixels
Display aspect ratio             : 16:9
Frame rate                       : 23.976 fps
Color space                      : YUV
Chroma subsampling               : 4:2:0
Bit depth                        : 8 bits
Scan type                        : Progressive
Bits/(Pixel*Frame)               : 0.169
Stream size                      : 1.23 GiB (89%)
Writing library                  : x264 core 115 r1995 c1e60b9
Encoding settings                : cabac=1 / ref=5 / deblock=1:0:0 / analyse=0x3:0x113 / me=umh / subme=8 / psy=1 / psy_rd=1.00:0.00 / mixed_ref=1 / me_range=16 / chroma_me=1 / trellis=1 / 8x8dct=1 / cqm=0 / deadzone=21,11 / fast_pskip=1 / chroma_qp_offset=-2 / threads=16 / sliced_threads=0 / nr=0 / decimate=1 / interlaced=0 / bluray_compat=0 / constrained_intra=0 / bframes=3 / b_pyramid=2 / b_adapt=1 / b_bias=0 / direct=1 / weightb=1 / open_gop=0 / weightp=2 / keyint=250 / keyint_min=23 / scenecut=40 / intra_refresh=0 / rc_lookahead=40 / rc=crf / mbtree=1 / crf=20.0 / qcomp=0.60 / qpmin=0 / qpmax=69 / qpstep=4 / ip_ratio=1.40 / aq=1:1.00
Language                         : English

Audio
ID                               : 2
Format                           : AC-3
Format/Info                      : Audio Coding 3
Mode extension                   : CM (complete main)
Codec ID                         : A_AC3
Duration                         : 47mn 15s
Bit rate mode                    : Constant
Bit rate                         : 384 Kbps
Channel(s)                       : 6 channels
Channel positions                : Front: L C R, Side: L R, LFE
Sampling rate                    : 48.0 KHz
Bit depth                        : 16 bits
Compression mode                 : Lossy
Stream size                      : 130 MiB (9%)
Language                         : English

Text
ID                               : 3
Format                           : UTF-8
Codec ID                         : S_TEXT/UTF8
Codec ID/Info                    : UTF-8 Plain Text
Language                         : English
